<svg width="1000" height="1000" viewBox="0 0 1000 1000" fill="none" xmlns="http://www.w3.org/2000/svg">
<path d="M1000 500C1000 776.142 776.142 1000 500 1000C223.858 1000 0 776.142 0 500C0 223.858 223.858 0 500 0C776.142 0 1000 223.858 1000 500Z" fill="#D9D9D9"/>
<path d="M937.66 605.872C915.402 679.04 864.813 721.768 796.827 746.204C757.298 760.411 716.085 764.492 674.583 767.18C612.133 771.225 549.902 762.952 487.464 764.552C434.481 765.909 381.571 770.863 328.514 768.685C280.026 766.695 231.675 763.223 185.466 746.354C135.71 728.189 93.5409 699.641 69.4576 649.968C46.776 603.186 47.0163 553.823 60.8675 504.731C78.3923 442.62 111.616 388.843 151.792 339.612C183.752 300.448 217.522 262.751 257.372 231.547C327.323 176.774 404.55 138.048 493.459 129.824C553.488 124.271 612.568 133.239 669.755 153.149C734.049 175.534 792.078 208.716 838.833 259.665C896.44 322.439 936.547 394.482 946.17 481.429C950.781 523.094 949.8 564.552 937.66 605.872ZM431.573 741.652C465.115 738.784 498.739 737.815 532.344 739.142C587.676 741.328 642.943 746.397 698.341 740.118C735.151 735.946 771.768 731.047 806.069 715.718C862.845 690.347 902.58 649.437 917.534 586.675C927.265 545.834 925.798 504.592 918.984 463.587C907.18 392.55 873.078 332.786 825.77 280.596C779.165 229.181 720.426 197.353 655.694 176.148C601.488 158.391 546.034 149.651 489.194 156.526C425.526 164.227 367.534 188.526 313.494 223.03C248.623 264.451 195.829 318.671 151.892 382.15C123.157 423.665 97.2029 466.725 84.0781 516.371C74.8516 551.271 73.2615 586.439 84.7541 621.156C100.285 668.072 134.402 696.88 177.349 715.931C233.86 740.999 294.151 744.304 354.552 745.079C379.636 745.401 404.755 742.929 431.573 741.652Z" fill="#080707"/>
<path d="M400.214 388.805C400.762 365.078 401.336 342.268 401.807 319.455C402.137 303.53 406.696 300.161 422.509 298.058C443.547 295.26 464.473 291.649 485.746 292.39C518.353 293.526 550.492 297.26 579.12 315.209C603.159 330.281 619.175 351.451 625.134 379.96C625.501 381.715 626.44 383.347 627.969 387.188C648.824 359.579 662.247 329.959 673.072 299.136C668.951 295.714 666.445 298.472 663.827 299.491C656.762 302.242 649.82 305.325 642.715 307.959C636.475 310.274 631.278 308.141 627.677 302.7C623.725 296.731 626.145 291.361 630.439 286.891C632.712 284.525 635.643 282.545 638.63 281.207C656.368 273.254 674.051 265.134 692.063 257.87C707.486 251.651 714.777 255.939 718.245 272.455C722.358 292.04 725.781 311.762 728.045 331.673C728.219 333.202 728.236 334.751 728.286 336.292C728.534 343.921 726.05 350.284 717.992 351.258C710.074 352.214 705.634 346.59 704.063 339.416C702.223 331.012 701.389 322.381 700.085 313.853C699.815 312.092 699.398 310.354 698.876 307.744C695.406 310.318 694.676 313.572 693.589 316.557C677.391 361.078 653.551 400.669 621.915 435.72C607.809 451.348 596.124 469.177 578.581 481.496C536.725 510.888 490.421 527.489 439.874 531.858C423.734 533.253 424.13 532.895 424.175 549.172C424.247 574.76 426.555 600.337 424.964 625.913C424.286 636.817 420.405 640.415 412.201 640.063C404.644 639.74 400.007 634.223 399.8 624.864C399.23 598.991 398.668 573.117 398.313 547.24C398.105 532.099 398.278 532.158 383.834 530.196C364.817 527.612 346.451 522.565 328.907 514.601C320.566 510.816 312.787 506.021 305.758 500.071C303.45 498.117 301.065 495.998 299.491 493.457C295.848 487.571 296.358 481.613 301.053 476.5C305.574 471.575 310.484 473.537 315.003 476.635C336.208 491.168 359.456 500.16 384.693 504.228C396.642 506.155 398.226 505.399 398.012 493.344C397.398 458.769 399.541 424.262 400.214 388.805ZM424.124 492.783C423.628 507.815 423.851 508.052 437.345 506.345C455.688 504.025 473.903 501.039 491.594 495.375C530.203 483.016 564.436 463.614 590.635 431.368C600.33 419.435 602.69 405.473 601.041 390.511C597.815 361.249 580.24 343.296 555.2 332.122C519.558 316.217 482.114 316.428 444.495 321.739C427.468 324.143 426.911 325.241 426.801 343.044C426.499 392.4 423.383 441.701 424.124 492.783Z" fill="#080707"/>
<path d="M101.903 590.324C99.7437 577.99 98.6045 566.367 99.6284 554.64C99.9792 550.62 98.7284 544.415 104.684 544.553C111.054 544.701 109.681 551.122 109.946 555.455C111.097 574.269 113.039 592.883 120.678 610.391C136.892 647.552 166.177 669.245 202.623 682.615C220.601 689.21 239.058 693.853 257.81 697.416C259.874 697.808 261.962 698.287 263.906 699.068C266.275 700.02 268.118 701.699 267.742 704.634C267.408 707.233 265.274 708.021 263.169 708.435C261.113 708.839 258.92 709.319 256.903 709.002C221.025 703.356 186.522 693.669 156.012 672.601C127.332 652.797 109.845 625.267 101.903 590.324Z" fill="#080707"/>
<path d="M882.628 605.348C858.881 660.672 814.763 688.79 760.643 703.928C748.97 707.193 737.231 710.348 725.102 711.412C722.097 711.675 719.042 711.621 716.028 711.427C713.086 711.238 710.455 709.86 710.212 706.634C709.959 703.27 712.63 701.894 715.454 701.293C724.634 699.336 733.883 697.691 743.017 695.538C767.65 689.73 791.178 680.871 813.173 668.088C841.441 651.659 859.957 626.64 873.079 596.938C875.315 591.877 877.603 586.833 880.077 581.89C881.208 579.63 883.074 577.666 885.886 578.592C889.043 579.631 889.858 582.54 889.063 585.371C887.235 591.879 884.98 598.263 882.628 605.348Z" fill="#080707"/>
<path d="M804.603 629.962C814.561 622.574 821.234 613.078 827.928 603.588C830.379 600.112 832.952 595.517 837.936 598.986C842.731 602.323 839.817 606.586 837.761 610.364C829.688 625.199 818.201 636.763 804.384 645.983C801.659 647.801 798.475 649.122 795.321 649.996C792.278 650.84 789.111 650.24 787.834 646.659C786.768 643.672 788.08 641.179 790.514 639.481C794.985 636.362 799.566 633.408 804.603 629.962Z" fill="#080707"/>
<path d="M148.948 603.391C148.945 599.711 149.387 596.917 152.857 596.395C155.643 595.976 157.292 597.977 158.635 600.072C163.409 607.521 168.118 615.014 172.851 622.491C174.596 625.248 175.864 628.211 172.734 630.658C169.866 632.901 166.804 631.708 164.484 629.537C157.031 622.561 151.333 614.395 148.948 603.391Z" fill="#080707"/>
</svg>
