<svg width="181" height="39" viewBox="0 0 181 39" fill="none" xmlns="http://www.w3.org/2000/svg">
<path d="M39 19.5C39 30.2696 30.2696 39 19.5 39C8.73045 39 0 30.2696 0 19.5C0 8.73045 8.73045 0 19.5 0C30.2696 0 39 8.73045 39 19.5Z" fill="#D9D9D9"/>
<path d="M36.5687 23.629C35.7007 26.4825 33.7277 28.1489 31.0762 29.1019C29.5346 29.656 27.9273 29.8152 26.3087 29.92C23.8732 30.0778 21.4462 29.7551 19.0111 29.8175C16.9447 29.8705 14.8813 30.0637 12.812 29.9787C10.921 29.9011 9.03531 29.7657 7.23319 29.1078C5.29269 28.3994 3.6481 27.286 2.70885 25.3488C1.82426 23.5243 1.83364 21.5991 2.37383 19.6845C3.0573 17.2622 4.35301 15.1649 5.91989 13.2449C7.16635 11.7175 8.48337 10.2473 10.0375 9.03035C12.7656 6.89417 15.7774 5.38388 19.2449 5.06312C21.586 4.84656 23.8901 5.19632 26.1204 5.97283C28.6279 6.84584 30.891 8.13993 32.7145 10.1269C34.9612 12.5751 36.5253 15.3848 36.9006 18.7757C37.0805 20.4007 37.0422 22.0175 36.5687 23.629ZM16.8313 28.9244C18.1395 28.8126 19.4508 28.7748 20.7614 28.8266C22.9194 28.9118 25.0748 29.1095 27.2353 28.8646C28.6709 28.7019 30.099 28.5108 31.4367 27.913C33.651 26.9235 35.2006 25.328 35.7838 22.8803C36.1633 21.2875 36.1061 19.6791 35.8404 18.0799C35.38 15.3094 34.05 12.9787 32.205 10.9433C30.3874 8.93806 28.0966 7.69676 25.5721 6.86977C23.458 6.17724 21.2953 5.83638 19.0786 6.10451C16.5955 6.40484 14.3338 7.35252 12.2263 8.69818C9.69631 10.3136 7.63733 12.4282 5.92378 14.9039C4.80313 16.5229 3.79091 18.2023 3.27905 20.1385C2.91921 21.4996 2.8572 22.8711 3.30541 24.2251C3.91112 26.0548 5.24167 27.1783 6.9166 27.9213C9.12054 28.899 11.4719 29.0279 13.8275 29.0581C14.8058 29.0706 15.7854 28.9742 16.8313 28.9244Z" fill="#080707"/>
<path d="M15.6084 15.1634C15.6297 14.2381 15.6521 13.3484 15.6705 12.4587C15.6833 11.8377 15.8612 11.7063 16.4779 11.6243C17.2983 11.5151 18.1144 11.3743 18.9441 11.4032C20.2157 11.4475 21.4692 11.5931 22.5857 12.2932C23.5232 12.881 24.1478 13.7066 24.3802 14.8185C24.3945 14.8869 24.4312 14.9505 24.4908 15.1003C25.3042 14.0236 25.8276 12.8684 26.2498 11.6663C26.0891 11.5328 25.9914 11.6404 25.8892 11.6802C25.6137 11.7874 25.343 11.9077 25.0659 12.0104C24.8225 12.1007 24.6198 12.0175 24.4794 11.8053C24.3253 11.5725 24.4197 11.3631 24.5871 11.1887C24.6758 11.0965 24.7901 11.0193 24.9066 10.9671C25.5983 10.6569 26.288 10.3402 26.9905 10.0569C27.592 9.8144 27.8763 9.98162 28.0116 10.6258C28.172 11.3896 28.3054 12.1587 28.3938 12.9352C28.4005 12.9949 28.4012 13.0553 28.4031 13.1154C28.4128 13.4129 28.316 13.6611 28.0017 13.6991C27.6929 13.7364 27.5197 13.517 27.4585 13.2372C27.3867 12.9095 27.3542 12.5728 27.3033 12.2403C27.2928 12.1716 27.2765 12.1038 27.2562 12.002C27.1208 12.1024 27.0924 12.2293 27.05 12.3457C26.4182 14.082 25.4885 15.6261 24.2547 16.9931C23.7045 17.6026 23.2489 18.2979 22.5647 18.7784C20.9323 19.9246 19.1264 20.5721 17.1551 20.7425C16.5256 20.7969 16.5411 20.7829 16.5428 21.4177C16.5456 22.4156 16.6356 23.4131 16.5736 24.4106C16.5471 24.8359 16.3958 24.9762 16.0758 24.9625C15.7811 24.9498 15.6003 24.7347 15.5922 24.3697C15.57 23.3607 15.5481 22.3515 15.5342 21.3423C15.5261 20.7519 15.5328 20.7542 14.9695 20.6776C14.2278 20.5769 13.5116 20.38 12.8274 20.0695C12.5021 19.9218 12.1987 19.7348 11.9246 19.5028C11.8346 19.4266 11.7415 19.3439 11.6802 19.2448C11.5381 19.0153 11.558 18.7829 11.7411 18.5835C11.9174 18.3914 12.1089 18.4679 12.2851 18.5887C13.1121 19.1556 14.0188 19.5062 15.003 19.6649C15.469 19.74 15.5308 19.7106 15.5225 19.2404C15.4985 17.892 15.5821 16.5462 15.6084 15.1634ZM16.5408 19.2186C16.5215 19.8048 16.5302 19.814 17.0564 19.7475C17.7718 19.657 18.4822 19.5405 19.1722 19.3196C20.6779 18.8376 22.013 18.0809 23.0348 16.8233C23.4129 16.358 23.5049 15.8134 23.4406 15.2299C23.3148 14.0887 22.6293 13.3886 21.6528 12.9528C20.2628 12.3325 18.8025 12.3407 17.3353 12.5478C16.6712 12.6416 16.6495 12.6844 16.6453 13.3787C16.6334 15.3036 16.5119 17.2263 16.5408 19.2186Z" fill="#080707"/>
<path d="M3.97423 23.0226C3.89001 22.5416 3.84558 22.0883 3.88551 21.631C3.89919 21.4742 3.85041 21.2322 4.08267 21.2376C4.33109 21.2433 4.27755 21.4938 4.28789 21.6627C4.33279 22.3965 4.40851 23.1224 4.70644 23.8053C5.3388 25.2545 6.48091 26.1005 7.90229 26.622C8.60343 26.8792 9.32326 27.0603 10.0546 27.1992C10.1351 27.2145 10.2165 27.2332 10.2923 27.2637C10.3847 27.3008 10.4566 27.3663 10.4419 27.4807C10.4289 27.5821 10.3457 27.6128 10.2636 27.629C10.1834 27.6447 10.0979 27.6634 10.0192 27.6511C8.61996 27.4309 7.27436 27.0531 6.08448 26.2314C4.96594 25.4591 4.28394 24.3854 3.97423 23.0226Z" fill="#080707"/>
<path d="M34.4225 23.6086C33.4964 25.7662 31.7758 26.8628 29.6651 27.4532C29.2098 27.5805 28.752 27.7036 28.279 27.7451C28.1618 27.7553 28.0427 27.7532 27.9251 27.7457C27.8104 27.7383 27.7077 27.6845 27.6983 27.5587C27.6884 27.4275 27.7926 27.3739 27.9027 27.3504C28.2607 27.2741 28.6214 27.21 28.9777 27.126C29.9383 26.8995 30.856 26.554 31.7138 26.0554C32.8162 25.4147 33.5383 24.439 34.0501 23.2806C34.1373 23.0832 34.2265 22.8865 34.323 22.6937C34.3671 22.6056 34.4399 22.529 34.5496 22.5651C34.6727 22.6056 34.7045 22.7191 34.6734 22.8295C34.6022 23.0833 34.5142 23.3322 34.4225 23.6086Z" fill="#080707"/>
<path d="M31.3795 24.5685C31.7679 24.2804 32.0281 23.91 32.2892 23.5399C32.3848 23.4044 32.4851 23.2252 32.6795 23.3604C32.8665 23.4906 32.7529 23.6569 32.6727 23.8042C32.3578 24.3828 31.9099 24.8338 31.371 25.1933C31.2647 25.2642 31.1405 25.3158 31.0175 25.3498C30.8988 25.3827 30.7753 25.3594 30.7255 25.2197C30.6839 25.1032 30.7351 25.006 30.8301 24.9397C31.0044 24.8181 31.1831 24.7029 31.3795 24.5685Z" fill="#080707"/>
<path d="M5.80897 23.5322C5.80884 23.3887 5.82608 23.2798 5.96143 23.2594C6.07008 23.2431 6.13439 23.3211 6.18675 23.4028C6.37295 23.6933 6.55661 23.9855 6.74118 24.2771C6.80925 24.3847 6.85871 24.5002 6.73663 24.5957C6.62477 24.6831 6.50536 24.6366 6.41487 24.5519C6.12421 24.2799 5.90197 23.9614 5.80897 23.5322Z" fill="#080707"/>
<path d="M171.772 32.8092C169.596 32.8092 167.679 32.3833 166.023 31.5315C164.39 30.6797 163.124 29.5203 162.225 28.0534C161.326 26.5627 160.877 24.871 160.877 22.9781C160.877 21.0616 161.314 19.3699 162.19 17.9029C163.089 16.4123 164.307 15.2529 165.845 14.4248C167.383 13.573 169.122 13.1471 171.062 13.1471C172.932 13.1471 174.612 13.5493 176.102 14.3538C177.617 15.1346 178.811 16.2703 179.687 17.7609C180.562 19.2279 181 20.9906 181 23.0491C181 23.2621 180.988 23.5105 180.965 23.7944C180.941 24.0547 180.917 24.3031 180.894 24.5397H165.384V21.3101H177.983L175.854 22.2683C175.854 21.2746 175.653 20.4109 175.25 19.6775C174.848 18.944 174.292 18.3761 173.582 17.9739C172.873 17.548 172.044 17.335 171.098 17.335C170.152 17.335 169.312 17.548 168.578 17.9739C167.868 18.3761 167.312 18.9558 166.91 19.7129C166.508 20.4464 166.307 21.3219 166.307 22.3393V23.1911C166.307 24.2322 166.531 25.1549 166.981 25.9594C167.454 26.7402 168.105 27.3435 168.933 27.7694C169.785 28.1717 170.779 28.3728 171.914 28.3728C172.932 28.3728 173.819 28.219 174.576 27.9114C175.357 27.6038 176.067 27.1424 176.706 26.5273L179.651 29.7215C178.776 30.7152 177.676 31.4842 176.351 32.0284C175.026 32.5489 173.5 32.8092 171.772 32.8092Z" fill="black"/>
<path d="M151.621 32.5253V6.19081H157.158V32.5253H151.621Z" fill="black"/>
<path d="M138.403 32.8092C136.723 32.8092 135.28 32.4543 134.073 31.7444C132.866 31.0346 131.944 29.9581 131.305 28.5148C130.666 27.0478 130.347 25.2022 130.347 22.9781C130.347 20.7304 130.678 18.8848 131.34 17.4415C132.027 15.9982 132.973 14.9216 134.18 14.2118C135.386 13.502 136.794 13.1471 138.403 13.1471C140.201 13.1471 141.81 13.5493 143.23 14.3538C144.673 15.1582 145.809 16.294 146.637 17.7609C147.489 19.2279 147.915 20.967 147.915 22.9781C147.915 24.9656 147.489 26.6929 146.637 28.1598C145.809 29.6268 144.673 30.7744 143.23 31.6025C141.81 32.4069 140.201 32.8092 138.403 32.8092ZM127.117 32.5253V6.19081H132.654V17.2995L132.299 22.9426L132.405 28.6212V32.5253H127.117ZM137.445 28.2663C138.368 28.2663 139.184 28.0534 139.894 27.6275C140.627 27.2016 141.207 26.5982 141.633 25.8174C142.082 25.013 142.307 24.0665 142.307 22.9781C142.307 21.8661 142.082 20.9196 141.633 20.1388C141.207 19.358 140.627 18.7547 139.894 18.3288C139.184 17.9029 138.368 17.6899 137.445 17.6899C136.522 17.6899 135.694 17.9029 134.96 18.3288C134.227 18.7547 133.647 19.358 133.221 20.1388C132.795 20.9196 132.583 21.8661 132.583 22.9781C132.583 24.0665 132.795 25.013 133.221 25.8174C133.647 26.5982 134.227 27.2016 134.96 27.6275C135.694 28.0534 136.522 28.2663 137.445 28.2663Z" fill="black"/>
<path d="M113.899 32.8092C112.219 32.8092 110.776 32.4543 109.569 31.7444C108.362 31.0346 107.44 29.9581 106.801 28.5148C106.162 27.0478 105.842 25.2022 105.842 22.9781C105.842 20.7304 106.174 18.8848 106.836 17.4415C107.522 15.9982 108.469 14.9216 109.676 14.2118C110.882 13.502 112.29 13.1471 113.899 13.1471C115.697 13.1471 117.306 13.5493 118.726 14.3538C120.169 15.1582 121.305 16.294 122.133 17.7609C122.985 19.2279 123.411 20.967 123.411 22.9781C123.411 24.9656 122.985 26.6929 122.133 28.1598C121.305 29.6268 120.169 30.7744 118.726 31.6025C117.306 32.4069 115.697 32.8092 113.899 32.8092ZM102.613 32.5253V6.19081H108.149V17.2995L107.794 22.9426L107.901 28.6212V32.5253H102.613ZM112.941 28.2663C113.863 28.2663 114.68 28.0534 115.39 27.6275C116.123 27.2016 116.703 26.5982 117.129 25.8174C117.578 25.013 117.803 24.0665 117.803 22.9781C117.803 21.8661 117.578 20.9196 117.129 20.1388C116.703 19.358 116.123 18.7547 115.39 18.3288C114.68 17.9029 113.863 17.6899 112.941 17.6899C112.018 17.6899 111.19 17.9029 110.456 18.3288C109.723 18.7547 109.143 19.358 108.717 20.1388C108.291 20.9196 108.078 21.8661 108.078 22.9781C108.078 24.0665 108.291 25.013 108.717 25.8174C109.143 26.5982 109.723 27.2016 110.456 27.6275C111.19 28.0534 112.018 28.2663 112.941 28.2663Z" fill="black"/>
<path d="M89.699 32.8092C87.5222 32.8092 85.6057 32.3833 83.9494 31.5315C82.3168 30.6797 81.051 29.5203 80.1519 28.0534C79.2528 26.5627 78.8032 24.871 78.8032 22.9781C78.8032 21.0616 79.2409 19.3699 80.1164 17.9029C81.0155 16.4123 82.234 15.2529 83.772 14.4248C85.3099 13.573 87.049 13.1471 88.9892 13.1471C90.8584 13.1471 92.5383 13.5493 94.0289 14.3538C95.5432 15.1346 96.7381 16.2703 97.6135 17.7609C98.489 19.2279 98.9267 20.9906 98.9267 23.0491C98.9267 23.2621 98.9149 23.5105 98.8912 23.7944C98.8675 24.0547 98.8439 24.3031 98.8202 24.5397H83.3106V21.3101H95.91L93.7805 22.2683C93.7805 21.2746 93.5794 20.4109 93.1771 19.6775C92.7749 18.944 92.2189 18.3761 91.509 17.9739C90.7992 17.548 89.9711 17.335 89.0247 17.335C88.0782 17.335 87.2383 17.548 86.5048 17.9739C85.795 18.3761 85.2389 18.9558 84.8367 19.7129C84.4345 20.4464 84.2334 21.3219 84.2334 22.3393V23.1911C84.2334 24.2322 84.4581 25.1549 84.9077 25.9594C85.3809 26.7402 86.0316 27.3435 86.8597 27.7694C87.7115 28.1717 88.7052 28.3728 89.841 28.3728C90.8584 28.3728 91.7457 28.219 92.5028 27.9114C93.2836 27.6038 93.9934 27.1424 94.6323 26.5273L97.578 29.7215C96.7026 30.7152 95.6024 31.4842 94.2774 32.0284C92.9524 32.5489 91.4262 32.8092 89.699 32.8092Z" fill="black"/>
<path d="M55 32.5253V7.68144H65.7538C67.9779 7.68144 69.8945 8.04818 71.5034 8.78166C73.1123 9.49149 74.3545 10.5207 75.23 11.8694C76.1054 13.2181 76.5431 14.827 76.5431 16.6962C76.5431 18.5417 76.1054 20.1388 75.23 21.4875C74.3545 22.8362 73.1123 23.8772 71.5034 24.6107C69.8945 25.3205 67.9779 25.6755 65.7538 25.6755H58.1942L60.7496 23.0846V32.5253H55ZM60.7496 23.7234L58.1942 20.9906H65.4344C67.209 20.9906 68.534 20.6121 69.4094 19.8549C70.2849 19.0978 70.7226 18.0449 70.7226 16.6962C70.7226 15.3239 70.2849 14.2591 69.4094 13.502C68.534 12.7448 67.209 12.3663 65.4344 12.3663H58.1942L60.7496 9.63345V23.7234Z" fill="black"/>
</svg>
